<svg xmlns="http://www.w3.org/2000/svg" viewBox="0 0 1280 640" width="1280" height="640">
  <defs>
    <linearGradient id="bgGrad" x1="0%" y1="0%" x2="100%" y2="100%">
      <stop offset="0%" style="stop-color:#0f0c29;stop-opacity:1" />
      <stop offset="50%" style="stop-color:#1a1a2e;stop-opacity:1" />
      <stop offset="100%" style="stop-color:#16213e;stop-opacity:1" />
    </linearGradient>
    <linearGradient id="accentGrad" x1="0%" y1="0%" x2="0%" y2="100%">
      <stop offset="0%" style="stop-color:#4f6df5;stop-opacity:1" />
      <stop offset="100%" style="stop-color:#3b51b5;stop-opacity:1" />
    </linearGradient>
    <filter id="glow">
      <feGaussianBlur stdDeviation="3" result="coloredBlur"/>
      <feMerge>
        <feMergeNode in="coloredBlur"/>
        <feMergeNode in="SourceGraphic"/>
      </feMerge>
    </filter>
  </defs>
  <!-- Background -->
  <rect width="1280" height="640" fill="url(#bgGrad)"/>
  <!-- Subtle grid pattern -->
  <g opacity="0.05">
    <line x1="0" y1="0" x2="1280" y2="640" stroke="white" stroke-width="1"/>
    <line x1="1280" y1="0" x2="0" y2="640" stroke="white" stroke-width="1"/>
    <circle cx="640" cy="320" r="200" fill="none" stroke="white" stroke-width="1"/>
    <circle cx="640" cy="320" r="300" fill="none" stroke="white" stroke-width="1"/>
  </g>
  <!-- Speaker icon group -->
  <g transform="translate(340, 180)" filter="url(#glow)">
    <!-- Speaker body -->
    <polygon points="30,78 30,142 55,142 90,172 90,48 55,78" fill="url(#accentGrad)"/>
    <!-- Sound waves -->
    <path d="M 108 62 Q 135 110 108 158" fill="none" stroke="#4f6df5" stroke-width="8" stroke-linecap="round" opacity="0.9"/>
    <path d="M 125 42 Q 162 110 125 178" fill="none" stroke="#4f6df5" stroke-width="8" stroke-linecap="round" opacity="0.6"/>
    <!-- Slider -->
    <line x1="10" y1="205" x2="150" y2="205" stroke="#4f6df5" stroke-width="5" stroke-linecap="round" opacity="0.4"/>
    <circle cx="100" cy="205" r="9" fill="#4f6df5"/>
  </g>
  <!-- Text -->
  <text x="590" y="270" font-family="-apple-system, BlinkMacSystemFont, 'SF Pro Display', 'Helvetica Neue', sans-serif" font-size="78" font-weight="700" fill="white" letter-spacing="-2">TeamsVolume</text>
  <text x="590" y="330" font-family="-apple-system, BlinkMacSystemFont, 'SF Pro Text', 'Helvetica Neue', sans-serif" font-size="28" fill="#8892b0" letter-spacing="0.5">Per-app volume control for Microsoft Teams on macOS</text>
  <!-- Feature pills -->
  <g transform="translate(590, 370)">
    <rect x="0" y="0" width="120" height="36" rx="18" fill="none" stroke="#4f6df5" stroke-width="1.5" opacity="0.7"/>
    <text x="60" y="23" font-family="SF Pro Text, sans-serif" font-size="14" fill="#4f6df5" text-anchor="middle">Menu Bar</text>
    <rect x="135" y="0" width="100" height="36" rx="18" fill="none" stroke="#4f6df5" stroke-width="1.5" opacity="0.7"/>
    <text x="185" y="23" font-family="SF Pro Text, sans-serif" font-size="14" fill="#4f6df5" text-anchor="middle">100 KB</text>
    <rect x="250" y="0" width="140" height="36" rx="18" fill="none" stroke="#4f6df5" stroke-width="1.5" opacity="0.7"/>
    <text x="320" y="23" font-family="SF Pro Text, sans-serif" font-size="14" fill="#4f6df5" text-anchor="middle">Zero Deps</text>
    <rect x="405" y="0" width="160" height="36" rx="18" fill="none" stroke="#4f6df5" stroke-width="1.5" opacity="0.7"/>
    <text x="485" y="23" font-family="SF Pro Text, sans-serif" font-size="14" fill="#4f6df5" text-anchor="middle">Core Audio Tap</text>
  </g>
  <!-- macOS badge -->
  <g transform="translate(590, 430)">
    <text x="0" y="20" font-family="SF Pro Text, sans-serif" font-size="16" fill="#4a5568">Built with Swift for macOS 14.2+ (Sonoma)</text>
  </g>
</svg>
